<svg id="Capa_1" enable-background="new 0 0 512 512" height="512" viewBox="0 0 512 512" width="512" xmlns="http://www.w3.org/2000/svg"><g><g><g><g><g><path d="m91.396 401.352h340.252v92.677h-340.252z" fill="#e1dde1"/><path d="m91.396 401.352h340.252v46.334h-340.252z" fill="#cbc5cb"/></g><g><path d="m61.17 442.43c0-3.75.5-7.39 1.45-10.84z" fill="#ffceeb"/><path d="m450.83 10.27v254.16l-87.83 118.95v17.97h-260.75c-18.94 0-34.88 12.81-39.63 30.24l57.6-431.59h320.34c5.67 0 10.27 4.6 10.27 10.27z" fill="#ffceeb"/><path d="m120.22 173.67-15.29 93.03 15.29 53.66v80.99h-17.97c-22.69 0-41.08 18.39-41.08 41.08v-93.21l17.9-68.72-17.9-51.68v-169.77c0-32.61 26.44-59.05 59.05-59.05z" fill="#f2eff2"/><path d="m120.22 173.67-15.29 93.03 15.29 53.66v80.99h-17.97c-4.4 0-8.64.7-12.61 1.98v-394.78c8.92-5.41 19.38-8.55 30.58-8.55z" fill="#e1dde1"/><g><path d="m61.169 267.934 59.047 22.841v-117.11l-59.047 55.157z" fill="#3ad1e0"/><path d="m89.641 202.226v94.713l30.575-6.164v-117.11z" fill="#20bfd5"/><g><path d="m120.216 320.361-59.047 28.863v-81.29l59.047-28.863z" fill="#d8b2ec"/><path d="m89.641 254.017v81.29l30.575-14.946v-81.29z" fill="#ca9ae5"/></g></g><path d="m450.83 10.27v254.16l-41.11 55.68v-309.84c0-5.67-4.6-10.27-10.27-10.27h41.11c5.67 0 10.27 4.6 10.27 10.27z" fill="#fcafe0"/><path d="m450.831 383.381h-87.834v-76.987c0-23.177 18.789-41.966 41.966-41.966h45.868z" fill="#975bbb"/><path d="m409.724 264.428h41.107v133.084h-41.107z" fill="#804d9e"/><g><g><g><path d="m440.558 476.057h-320.342c-12.761 0-23.105-10.345-23.105-23.105v-10.524c0-12.761 10.345-23.105 23.105-23.105h320.342c5.671 0 10.269-4.598 10.269-10.269v-15.404c0-5.671-4.598-10.269-10.269-10.269h-320.342c-32.61 0-59.047 26.436-59.047 59.047v10.524c0 32.611 26.436 59.047 59.047 59.047h320.342c5.671 0 10.269-4.598 10.269-10.269v-15.403c0-5.673-4.598-10.27-10.269-10.27z" fill="#3ad1e0"/></g></g><g><g fill="#20bfd5"><path d="m450.831 393.65v15.403c0 5.668-4.6 10.269-10.269 10.269h-41.107c5.668 0 10.269-4.6 10.269-10.269v-15.403c0-5.668-4.6-10.269-10.269-10.269h41.107c5.668 0 10.269 4.601 10.269 10.269z"/><path d="m450.831 486.328v15.403c0 5.668-4.6 10.269-10.269 10.269h-41.107c5.668 0 10.269-4.6 10.269-10.269v-15.403c0-5.668-4.6-10.269-10.269-10.269h41.107c5.668 0 10.269 4.6 10.269 10.269z"/></g></g></g></g></g><g fill="#fb54b6"><path d="m309.278 32.909c-4.268 0-7.726 3.459-7.726 7.726v24.062l-15.759-27.866c-1.727-3.056-5.301-4.56-8.692-3.669-3.393.893-5.76 3.962-5.76 7.472v53.421c0 4.267 3.459 7.726 7.726 7.726s7.726-3.459 7.726-7.726v-24.061l15.759 27.866c1.394 2.467 3.99 3.924 6.724 3.924.653 0 1.314-.083 1.968-.255 3.393-.893 5.76-3.962 5.76-7.472v-53.421c0-4.267-3.459-7.727-7.726-7.727z"/><path d="m206.698 33.103c-3.517-.805-7.117.933-8.68 4.182l-13.562 28.178-13.562-28.178c-1.563-3.248-5.164-4.986-8.68-4.182-3.515.802-6.008 3.928-6.008 7.533v53.421c0 4.267 3.459 7.726 7.726 7.726 4.268 0 7.726-3.459 7.726-7.726v-19.552l5.836 12.125c1.288 2.675 3.993 4.376 6.962 4.376s5.674-1.701 6.962-4.376l5.836-12.125v19.552c0 4.267 3.459 7.726 7.726 7.726 4.268 0 7.726-3.459 7.726-7.726v-53.421c0-3.605-2.493-6.731-6.008-7.533z"/><path d="m362.997 63.605h-8.667c-4.268 0-7.726 3.459-7.726 7.726s3.459 7.726 7.726 7.726h.94c-.056 4.02-3.345 7.273-7.378 7.273-4.068 0-7.378-3.31-7.378-7.379v-23.21c0-4.069 3.31-7.379 7.378-7.379 3.491 0 6.532 2.474 7.229 5.883.855 4.181 4.931 6.875 9.119 6.021 4.18-.855 6.875-4.938 6.02-9.118-2.162-10.568-11.569-18.238-22.368-18.238-12.59 0-22.831 10.242-22.831 22.831v23.211c0 12.59 10.241 22.831 22.831 22.831s22.832-10.242 22.832-22.831v-7.621c-.001-4.267-3.459-7.726-7.727-7.726z"/><path d="m252.955 38.98c-.779-3.545-3.919-6.07-7.547-6.07h-6.769c-3.629 0-6.77 2.526-7.547 6.07l-11.72 53.421c-.914 4.168 1.723 8.288 5.891 9.203 4.173.915 8.288-1.723 9.203-5.891l1.202-5.48h12.711l1.202 5.48c.793 3.61 3.99 6.072 7.54 6.072.548 0 1.106-.059 1.663-.181 4.168-.914 6.806-5.035 5.891-9.203zm-13.897 35.8 2.965-13.516 2.966 13.516z"/><path d="m421.37 92.401-11.72-53.421c-.778-3.545-3.919-6.07-7.547-6.07h-6.769c-3.629 0-6.769 2.526-7.547 6.07l-11.721 53.421c-.914 4.168 1.723 8.288 5.891 9.203.558.122 1.115.181 1.663.181 3.55 0 6.747-2.462 7.54-6.072l1.202-5.48h12.711l1.202 5.48c.915 4.168 5.04 6.806 9.203 5.891 4.169-.915 6.807-5.035 5.892-9.203zm-25.617-17.621 2.966-13.516 2.965 13.516z"/></g></g><g><g><g><path d="m352.81 232.1c0 15.94-9.8 30.16-25.12 39.44h-84.33c-15.33-9.27-25.13-23.5-25.13-39.44 0-8.21 2.6-15.96 7.23-22.82l60.06-13.89 60.07 13.89c4.62 6.85 7.22 14.61 7.22 22.82z" fill="#fb54b6"/><path d="m345.586 209.282c-11.094-16.482-33.821-27.784-60.065-27.784-26.245 0-48.972 11.301-60.065 27.784z" fill="#f2eff2"/><g><path d="m327.682 271.544c-11.538 6.985-26.208 11.167-42.165 11.167s-30.617-4.183-42.155-11.167c1.452-22.025 19.769-39.435 42.155-39.435 22.395 0 40.712 17.41 42.165 39.435z" fill="#fc95d2"/><path d="m301.334 281.298c.752-2.936 1.154-6.006 1.154-9.169 0-19.264-14.824-35.047-33.677-36.592 5.12-2.205 10.776-3.431 16.71-3.431 22.396 0 40.713 17.41 42.165 39.435-7.602 4.607-16.565 7.986-26.352 9.757z" fill="#fc76c4"/></g></g><g><g><path d="m395.063 189.226c-1.158 0-2.334-.261-3.442-.813l-51.252-25.551c-2.622-1.307-4.279-3.985-4.279-6.914 0-2.93 1.657-5.608 4.279-6.914l51.252-25.551c3.824-1.904 8.459-.351 10.362 3.467 1.904 3.819.352 8.458-3.467 10.362l-37.382 18.637 37.382 18.637c3.819 1.904 5.371 6.543 3.467 10.362-1.351 2.709-4.083 4.278-6.92 4.278z" fill="#554e55"/></g><g><path d="m175.979 189.226c-2.838 0-5.568-1.568-6.921-4.281-1.904-3.819-.352-8.458 3.467-10.362l37.382-18.637-37.382-18.637c-3.819-1.904-5.371-6.543-3.467-10.362 1.904-3.818 6.541-5.371 10.362-3.467l51.252 25.551c2.622 1.307 4.279 3.985 4.279 6.914 0 2.93-1.657 5.608-4.279 6.914l-51.252 25.551c-1.107.555-2.283.816-3.441.816z" fill="#554e55"/></g></g></g><g><g><g><path d="m380.608 222.629c-1.01 0-2.036-.199-3.025-.621-3.926-1.673-5.751-6.211-4.078-10.137l2.394-5.619c1.673-3.925 6.206-5.753 10.137-4.078 3.926 1.673 5.751 6.211 4.078 10.137l-2.394 5.619c-1.252 2.937-4.108 4.699-7.112 4.699z" fill="#fb54b6"/></g><g><path d="m404.295 222.629c-1.01 0-2.036-.199-3.025-.621-3.926-1.673-5.752-6.211-4.078-10.137l2.394-5.619c1.672-3.925 6.206-5.753 10.137-4.078 3.926 1.673 5.752 6.211 4.078 10.137l-2.394 5.619c-1.252 2.937-4.108 4.699-7.112 4.699z" fill="#fb54b6"/></g></g><g><g><path d="m164.346 222.629c-1.01 0-2.036-.199-3.025-.621-3.926-1.673-5.752-6.211-4.078-10.137l2.394-5.619c1.672-3.925 6.207-5.753 10.137-4.078 3.926 1.673 5.752 6.211 4.078 10.137l-2.394 5.619c-1.252 2.937-4.108 4.699-7.112 4.699z" fill="#fb54b6"/></g><g><path d="m188.032 222.629c-1.01 0-2.036-.199-3.025-.621-3.926-1.673-5.752-6.211-4.078-10.137l2.394-5.619c1.673-3.925 6.207-5.753 10.137-4.078 3.926 1.673 5.752 6.211 4.078 10.137l-2.394 5.619c-1.252 2.937-4.108 4.699-7.112 4.699z" fill="#fb54b6"/></g></g></g></g><g><g><g><g><path d="m408.868 336.864c-4.268 0-7.726-3.459-7.726-7.726v-20.58c-1.639-.208-3.223-.942-4.482-2.2-3.018-3.018-3.018-7.909-.001-10.927l6.745-6.746c2.209-2.209 5.533-2.871 8.421-1.675 2.887 1.196 4.77 4.013 4.77 7.138v34.99c0 4.267-3.459 7.726-7.727 7.726z" fill="#f2eff2"/></g></g><g><path d="m415.922 361.388h-20.852c-4.268 0-7.726-3.459-7.726-7.726s3.459-7.726 7.726-7.726h20.852c4.268 0 7.726 3.459 7.726 7.726s-3.459 7.726-7.726 7.726z" fill="#f2eff2"/></g></g></g></g><g><path d="m90.693 161.504c-4.268 0-7.726-3.459-7.726-7.726v-90.794c0-4.267 3.459-7.726 7.726-7.726 4.268 0 7.726 3.459 7.726 7.726v90.794c.001 4.267-3.458 7.726-7.726 7.726z" fill="#804d9e"/></g><g><g><g><path d="m180.306 330.901h-24.847c-4.268 0-7.726-3.459-7.726-7.726s3.459-7.726 7.726-7.726h24.847c4.268 0 7.726 3.459 7.726 7.726s-3.459 7.726-7.726 7.726z" fill="#975bbb"/></g><g><path d="m225.402 358.284h-69.944c-4.268 0-7.726-3.459-7.726-7.726s3.459-7.726 7.726-7.726h69.944c4.268 0 7.726 3.459 7.726 7.726.001 4.267-3.458 7.726-7.726 7.726z" fill="#975bbb"/></g></g></g></g></svg>